# xmcd
#
# Track frame offsets:
#	150
#	8820
#	30210
#	52598
#	72357
#	91692
#	113025
#	134209
#	149334
#	169296
#	191650
#	206321
#	229612
#	245550
#	265735
#	287812
#
# Disc length: 4162 seconds
#
# Revision: 0
# Processed by: cddbd v1.4PL0 Copyright (c) Steve Scherf et al.
# Submitted via: AudioConverter v4.0 Copyright (c) Dennis Rebentrost
#
DISCID=da104010
DTITLE=cuentos de la cripta - cuentos de la cripta
DYEAR=1900
DGENRE=
TTITLE0=el gato volador
TTITLE1=tuyo
TTITLE2=te pierdo y te pienso
TTITLE3=la suegra 
TTITLE4=y yo sigo aqui
TTITLE5=si la vez
TTITLE6=a su hija
TTITLE7=la lola
TTITLE8=cuando el amor se da_a
TTITLE9=perdoname
TTITLE10=para no verte mas
TTITLE11=te voy hacer faliz
TTITLE12=nuestra cancion
TTITLE13=a puro dolor
TTITLE14=dejate atrapar
TTITLE15=al otro lado
EXTD=
EXTT0=
EXTT1=
EXTT2=
EXTT3=
EXTT4=
EXTT5=
EXTT6=
EXTT7=
EXTT8=
EXTT9=
EXTT10=
EXTT11=
EXTT12=
EXTT13=
EXTT14=
EXTT15=
PLAYORDER=
